<svg width="1024" height="1024" viewBox="0 0 1024 1024" fill="none" xmlns="http://www.w3.org/2000/svg">
<g clip-path="url(#clip0_932_208)">
<rect x="246" y="226" width="532" height="572" fill="white"/>
<path d="M502.41 612.228L646.982 514.266L757.54 679.18L614.803 775.551L502.41 612.228Z" fill="#C7C7C7"/>
<path d="M167.451 167.451C-22.7855 357.687 -22.7416 666.16 167.549 856.451C357.847 1046.75 666.313 1046.79 856.549 856.549C1046.79 666.305 1046.75 357.847 856.451 167.549C666.16 -22.7417 357.695 -22.7932 167.451 167.451ZM546.6 272.845L697.339 662.312C705.909 684.476 705.743 700.216 696.856 709.103C691.552 714.408 679.036 720.921 654.865 705.001L511.562 610.626C510.023 609.608 506.257 609.623 504.734 610.656L364.398 704.914C343.355 719.051 331.258 715.834 324.812 710.643C317.684 704.908 311.634 691.877 323.281 662.359L477.034 272.613C486.454 248.752 501.496 237.034 516.991 240.313C525.443 242.105 537.44 249.204 546.6 272.845Z" fill="black"/>
</g>
<defs>
<clipPath id="clip0_932_208">
<rect width="1024" height="1024" fill="white"/>
</clipPath>
</defs>
</svg>
